<svg width="165" height="165" viewBox="0 0 165 165" fill="none" xmlns="http://www.w3.org/2000/svg">
<circle cx="82.5" cy="82.5" r="82.5" fill="#00416D"/>
<path d="M17.945 104.374C11.9911 70.829 35.8036 51.9162 35.8036 51.9162C35.8036 51.9162 21.5495 45.0337 35.4856 28.9122C35.4856 28.9122 52.9853 14.5114 61.3029 40.0596C76.2705 34.5431 93.0934 35.1954 104.656 39.4603C108.86 23.4733 122.988 21.2315 131.041 27.5914C139.093 33.9512 145.454 45.9758 128.765 55.0559C139.369 64.8488 145.833 73.4036 146.139 95.5229C146.625 130.747 116.668 140.177 87.4705 140.58C64.4666 140.898 25.6225 147.63 17.945 104.374Z" fill="#FFE587"/>
<path d="M81.5345 95.1954C79.4877 113.892 65.1826 128.607 44.5822 110.75" stroke="black" stroke-width="7"/>
<path d="M81.5343 95.1954C84.0972 113.829 98.8035 128.142 118.902 109.723" stroke="black" stroke-width="7"/>
<path d="M72.5811 87.6903L92.046 87.4212L81.4534 98.1869L72.5811 87.6903Z" fill="black" stroke="black"/>
<ellipse cx="44.2861" cy="39.2623" rx="9.73338" ry="6.57966" transform="rotate(-36.9374 44.2861 39.2623)" fill="white"/>
<ellipse cx="123.51" cy="39.0536" rx="9.73338" ry="7.85247" transform="rotate(38.5172 123.51 39.0536)" fill="white"/>
</svg>
