<svg width="384" height="271" viewBox="0 0 384 271" fill="none" xmlns="http://www.w3.org/2000/svg">
<rect x="31" y="51" width="322" height="215" fill="#A2E1F5" stroke="#004B87" stroke-width="10"/>
<path d="M344.365 50.75L192 176.517L39.635 50.75H344.365Z" fill="#D5F1FA" stroke="#004B87" stroke-width="10"/>
<path d="M93.1602 186.352C85.337 138.436 119.64 111.955 119.64 111.955C119.64 111.955 99.465 101.868 119.64 79.1704C119.64 79.1704 144.86 58.9951 156.208 95.563C177.645 87.9973 201.603 89.2581 217.996 95.563C224.301 72.8656 244.476 69.9496 255.825 79.1704C267.173 88.3913 276 105.651 252.042 118.26C266.958 132.423 276 144.741 276 176.265C276 226.466 233.127 239.313 191.515 239.313C158.73 239.313 103.248 248.139 93.1602 186.352Z" fill="#FFE587"/>
<path d="M183.95 174.526C180.665 201.127 159.991 221.812 130.989 195.962" stroke="black" stroke-width="7"/>
<path d="M183.95 174.526C187.234 201.127 207.908 221.812 236.91 195.962" stroke="black" stroke-width="7"/>
<path d="M171.34 163.655H199.081L183.776 178.787L171.34 163.655Z" fill="black" stroke="black"/>
<ellipse cx="131.976" cy="94.0917" rx="13.8706" ry="9.37639" transform="rotate(-36.1455 131.976 94.0917)" fill="white"/>
<ellipse cx="244.868" cy="95.3548" rx="13.8706" ry="11.1902" transform="rotate(39.3091 244.868 95.3548)" fill="white"/>
</svg>
