<svg width="370" height="372" viewBox="0 0 370 372" fill="none" xmlns="http://www.w3.org/2000/svg">
<path d="M80.2674 7.91969L63.4878 3.00001L52.6305 7.91969L30.9157 3L34.8639 21.2028L26.9676 34.486L34.8639 43.3414L26.9676 54.6567L34.8639 68.9237L24.5 87.6185L34.8639 101.394L26.9676 116.645L34.8639 134.355L26.9677 148.131L34.8639 164.365L26.9676 179.125L34.8639 194.867L26.9677 208.643L34.8639 225L26.9676 248L43.7472 238.161L56.5786 248L70.3971 238.161L88.1637 248L101.982 238.161L120.736 248L141.464 238.161L156.269 248L174.036 238.161L192.789 248L208.582 238.161L226.348 248L244.115 238.161L259.908 248L276.687 238.161L293.467 248L311.233 238.161L329 248L324.065 232.257L329 214.546L324.065 194.867L329 182.076L324.065 161.414L329 142.719L324.065 125.992L329 106.313L324.065 87.6185L329 68.9237L324.065 49.245L329 34.486L324.065 16.7751L329 3.00001L311.233 7.91969L293.467 3.00001L280.142 7.91969L264.843 3.00002L250.531 7.91969L231.284 3.00001L214.504 7.91969L198.218 3.00001L185.387 7.91969L164.165 3.00001L142.451 7.91969L126.658 3.00002L110.865 7.91969L93.0989 3.00002L80.2674 7.91969Z" fill="white" stroke="#A7A7A7" stroke-width="3"/>
<path d="M303.5 30.5H55.5V219.5H303.5V30.5Z" fill="white" stroke="#FFE587" stroke-width="5"/>
<path d="M298.5 35.5H60.5V214.5H298.5V35.5Z" fill="white" stroke="#DA291C" stroke-width="5"/>
<mask id="mask0" mask-type="alpha" maskUnits="userSpaceOnUse" x="63" y="38" width="233" height="174">
<path d="M294.5 39.5H64.5V210.5H294.5V39.5Z" fill="white" stroke="#DA291C" stroke-width="3"/>
</mask>
<g mask="url(#mask0)">
<path d="M301 28H59V125H301V28Z" fill="#004B87"/>
<path d="M101 112C86.4931 97.2959 77.2412 92.8979 59 91V219H301V62C269.647 74.0675 254.207 84.7907 231 112C203.948 97.0727 192.48 92.6205 173 91C153.52 89.3795 124.067 96.135 101 112Z" fill="#A2E1F5"/>
<path d="M109 153C102.796 115 130 94 130 94C130 94 114 86 130 68C130 68 150 52.0001 159 81.0001C176 75.0001 195 76 208 81.0001C213 63 229 60.6875 238 68C247 75.3125 254 89 235 99C246.829 110.232 254 120 254 145C254 184.812 220 195 187 195C161 195 117 202 109 153Z" fill="#FFE587"/>
<path d="M181 146C178.395 167.096 162 183.5 139 163" stroke="black" stroke-width="4"/>
<path d="M181 146C183.605 167.096 200 183.5 223 163" stroke="black" stroke-width="4"/>
<path d="M171 135H193L180.862 147L171 135Z" fill="black" stroke="black"/>
<path d="M144.168 85.8378C149.074 82.2545 151.087 76.6612 148.665 73.345C146.242 70.0287 140.302 70.2452 135.396 73.8286C130.49 77.4119 128.477 83.0051 130.899 86.3214C133.321 89.6377 139.262 89.4212 144.168 85.8378Z" fill="white"/>
<path d="M223.689 87.7014C228.39 91.55 234.717 91.5957 237.822 87.8035C240.927 84.0113 239.634 77.8172 234.933 73.9685C230.232 70.1199 223.905 70.0742 220.8 73.8664C217.695 77.6586 218.989 83.8527 223.689 87.7014Z" fill="white"/>
</g>
</svg>
