<svg width="26" height="34" viewBox="0 0 26 34" fill="none" xmlns="http://www.w3.org/2000/svg">
<path d="M21.2258 33.0021C21.2258 33.553 20.7773 34.0001 20.2246 34.0001H5.27308C4.72041 34.0001 4.27187 33.553 4.27187 33.0021C4.27187 32.4511 4.72041 32.004 5.27308 32.004C7.04724 32.004 8.51436 30.5662 8.54306 28.7983C8.55774 27.9187 9.62905 27.4882 10.2525 28.109L12.7488 30.5981C13.3436 30.0053 14.2473 29.1044 15.2452 28.1096C15.87 27.4875 16.9399 27.9207 16.9546 28.799C16.9833 30.5662 18.4504 32.004 20.2246 32.004C20.7773 32.004 21.2258 32.4511 21.2258 33.0021V33.0021Z" fill="#C8885E"/>
<path d="M21.2258 33.0019C21.2258 33.5529 20.7773 34 20.2246 34H12.7488V30.598L15.2452 28.1095C15.87 27.4874 16.9399 27.9206 16.9546 28.7988C16.9833 30.566 18.4504 32.0039 20.2246 32.0039C20.7773 32.0039 21.2258 32.451 21.2258 33.0019V33.0019Z" fill="#9F5F4E"/>
<path d="M7.409 8.38356C9.73142 8.38356 11.6141 6.50684 11.6141 4.19178C11.6141 1.87672 9.73142 0 7.409 0C5.08658 0 3.20389 1.87672 3.20389 4.19178C3.20389 6.50684 5.08658 8.38356 7.409 8.38356Z" fill="#9F5F4E"/>
<path d="M18.1057 8.38356C20.4281 8.38356 22.3108 6.50684 22.3108 4.19178C22.3108 1.87672 20.4281 0 18.1057 0C15.7833 0 13.9006 1.87672 13.9006 4.19178C13.9006 6.50684 15.7833 8.38356 18.1057 8.38356Z" fill="#714437"/>
<path d="M20.6918 9.58101C20.6918 13.9471 17.1288 17.4988 12.7488 17.4988C8.36885 17.4988 4.80585 13.9471 4.80585 9.58101C4.80585 5.48172 7.99773 2.72778 12.7488 2.72778C17.4999 2.72778 20.6918 5.48172 20.6918 9.58101Z" fill="#C8885E"/>
<path d="M20.6918 9.58126C20.6918 13.9474 17.1288 17.4991 12.7488 17.4991V2.72803C17.4999 2.72803 20.6918 5.48196 20.6918 9.58126Z" fill="#9F5F4E"/>
<path d="M13.991 12.4164L13.457 12.9487C13.2614 13.1436 13.0051 13.2408 12.7488 13.2408C12.4925 13.2408 12.2362 13.1436 12.0406 12.9487L11.5066 12.4164C10.8785 11.7896 11.3237 10.7124 12.2148 10.7124H13.2828C14.1725 10.7124 14.6204 11.7883 13.991 12.4164Z" fill="#9F5F4E"/>
<path d="M10.6129 9.51446C10.0632 9.51446 9.61166 9.0666 9.61166 8.51642C9.61166 7.94001 10.1063 7.46767 10.7116 7.52296C11.2738 7.58218 11.664 8.08047 11.6094 8.61482C11.5548 9.13966 11.1138 9.51446 10.6129 9.51446V9.51446Z" fill="#9F5F4E"/>
<path d="M14.8848 9.51469C14.3359 9.51469 13.8836 9.0677 13.8836 8.51664C13.8836 7.93385 14.3838 7.46837 14.9835 7.52319C15.5456 7.58241 15.9358 8.0807 15.8812 8.61505C15.8267 9.13989 15.3856 9.51469 14.8848 9.51469Z" fill="#714437"/>
<path d="M21.2445 24.9691C21.2452 24.9698 21.2452 24.9704 21.2458 24.9711C20.3334 25.8813 14.1672 32.0066 13.457 32.7152C13.0679 33.1031 12.4331 33.1058 12.0406 32.7146C10.8244 31.5022 4.61474 25.3302 4.25317 24.9698V24.9691C7.2101 19.9483 3.41548 14.296 3.41548 14.296C5.9272 12.2134 9.63504 12.3891 11.9465 14.6926L12.7488 15.493L13.5511 14.6926C15.8553 12.3957 19.7857 16.562 22.3108 18.6539C22.2434 18.7544 18.3143 19.9935 21.2445 24.9691Z" fill="#FDB515"/>
<path d="M21.2445 24.9689L21.0216 25.1912C20.9982 25.2151 14.1672 32.0065 13.457 32.7151C13.2614 32.91 13.0051 33.0072 12.7488 33.0072V15.4929L13.5511 14.6924C15.8426 12.4082 19.5464 12.1953 22.0815 14.2965C22.0288 14.3764 18.3089 19.984 21.2445 24.9689V24.9689Z" fill="#C4820E"/>
<path d="M23.054 23.0914C22.791 23.4487 22.3986 23.8219 21.2445 24.969C20.8534 25.3589 20.2192 25.3589 19.8281 24.9697L17.0207 22.1705C16.2377 21.3907 16.2384 20.1279 17.0207 19.3481L22.0815 14.2966C22.3525 14.5209 22.6095 14.7717 22.8504 15.0492C24.8102 17.334 24.8936 20.7147 23.054 23.0914V23.0914Z" fill="#9F5F4E"/>
<path d="M8.47696 22.1705L5.66955 24.9696C5.2784 25.3589 4.6443 25.3589 4.25316 24.969L2.97894 23.6981C0.490582 21.2177 0.500594 17.1629 2.97894 14.6925C3.11978 14.5521 3.26529 14.4197 3.41547 14.2959L8.47696 19.348C9.25925 20.1278 9.25991 21.3906 8.47696 22.1705Z" fill="#C8885E"/>
<path d="M5.27308 33.9998C8.18532 33.9998 10.5462 31.6464 10.5462 28.7434C10.5462 25.8404 8.18532 23.4871 5.27308 23.4871C2.36084 23.4871 0 25.8404 0 28.7434C0 31.6464 2.36084 33.9998 5.27308 33.9998Z" fill="#9F5F4E"/>
<path d="M20.2246 33.9998C23.1368 33.9998 25.4977 31.6464 25.4977 28.7434C25.4977 25.8404 23.1368 23.4871 20.2246 23.4871C17.3124 23.4871 14.9515 25.8404 14.9515 28.7434C14.9515 31.6464 17.3124 33.9998 20.2246 33.9998Z" fill="#714437"/>
<path d="M13.991 12.4161L13.457 12.9484C13.2615 13.1434 13.0051 13.2405 12.7488 13.2405V10.7122H13.2828C14.1726 10.7122 14.6204 11.788 13.991 12.4161Z" fill="#714437"/>
</svg>
