<svg width="106" height="70" viewBox="0 0 106 70" fill="none" xmlns="http://www.w3.org/2000/svg">
<path d="M43.3014 32.4112L2.57599 66.234C0.909105 64.2481 -0.00292533 61.7402 0.000197355 59.1508V10.453C-0.0133343 8.20702 0.669284 6.01147 1.95437 4.16663L43.3014 32.4112Z" fill="#005497"/>
<path d="M106 10.4088V59.1066C106.003 61.696 105.091 64.2039 103.424 66.1898L62.6987 32.367L104.046 4.16663C105.324 5.99819 106.007 8.17734 106 10.4088Z" fill="#005497"/>
<path d="M103.662 66.048C101.559 68.5509 98.444 69.9988 95.1586 70H11.0111C7.72564 69.9988 4.61039 68.5509 2.50781 66.048L43.12 32.5L47.3275 35.3543C50.7934 37.7255 55.3765 37.7255 58.8424 35.3543L63.0499 32.5L103.662 66.048Z" fill="#003C76"/>
<path d="M104.498 4.8006L63.0918 32.8538L58.8666 35.7164C55.3861 38.0945 50.7836 38.0945 47.3031 35.7164L43.0779 32.8538L1.67197 4.75643C3.75548 1.78148 7.17762 0.00489991 10.8339 0.000151897H95.3363C99.009 -0.0190466 102.448 1.78272 104.498 4.8006Z" fill="#0070C9"/>
<path d="M63.6314 52.1104C63.6314 52.7855 63.0817 53.3335 62.4044 53.3335H44.0815C43.4042 53.3335 42.8545 52.7855 42.8545 52.1104C42.8545 51.4352 43.4042 50.8873 44.0815 50.8873C46.2557 50.8873 48.0536 49.1252 48.0888 46.9587C48.1068 45.8808 49.4197 45.3532 50.1837 46.114L53.2429 49.1644C53.9718 48.4378 55.0793 47.3338 56.3022 46.1148C57.0679 45.3524 58.3791 45.8832 58.3971 46.9595C58.4323 49.1252 60.2302 50.8873 62.4044 50.8873C63.0817 50.8873 63.6314 51.4352 63.6314 52.1104Z" fill="#C8885E"/>
<path d="M63.6316 52.1103C63.6316 52.7855 63.0819 53.3334 62.4046 53.3334H53.2432V49.1643L56.3024 46.1147C57.0681 45.3523 58.3793 45.8831 58.3973 46.9595C58.4325 49.1251 60.2304 50.8872 62.4046 50.8872C63.0819 50.8872 63.6316 51.4352 63.6316 52.1103Z" fill="#9F5F4E"/>
<path d="M46.699 21.9407C49.5451 21.9407 51.8523 19.6408 51.8523 16.8037C51.8523 13.9667 49.5451 11.6667 46.699 11.6667C43.8529 11.6667 41.5457 13.9667 41.5457 16.8037C41.5457 19.6408 43.8529 21.9407 46.699 21.9407Z" fill="#9F5F4E"/>
<path d="M59.8078 21.9407C62.6539 21.9407 64.9611 19.6408 64.9611 16.8037C64.9611 13.9667 62.6539 11.6667 59.8078 11.6667C56.9617 11.6667 54.6545 13.9667 54.6545 16.8037C54.6545 19.6408 56.9617 21.9407 59.8078 21.9407Z" fill="#714437"/>
<path d="M62.9769 23.4085C62.9769 28.7591 58.6105 33.1117 53.2428 33.1117C47.8752 33.1117 43.5088 28.7591 43.5088 23.4085C43.5088 18.3848 47.4204 15.0099 53.2428 15.0099C59.0653 15.0099 62.9769 18.3848 62.9769 23.4085Z" fill="#C8885E"/>
<path d="M62.9766 23.4085C62.9766 28.7591 58.6102 33.1117 53.2425 33.1117V15.0099C59.065 15.0099 62.9766 18.3848 62.9766 23.4085Z" fill="#9F5F4E"/>
<path d="M54.765 26.8829L54.1106 27.5352C53.8709 27.7741 53.5568 27.8932 53.2427 27.8932C52.9286 27.8932 52.6145 27.7741 52.3748 27.5352L51.7204 26.8829C50.9507 26.1148 51.4963 24.7947 52.5883 24.7947H53.8971C54.9875 24.7947 55.5364 26.1132 54.765 26.8829Z" fill="#9F5F4E"/>
<path d="M50.6249 23.3269C49.9513 23.3269 49.3979 22.7781 49.3979 22.1039C49.3979 21.3975 50.0042 20.8186 50.7459 20.8864C51.4348 20.959 51.913 21.5696 51.8461 22.2244C51.7793 22.8676 51.2388 23.3269 50.6249 23.3269Z" fill="#9F5F4E"/>
<path d="M55.8603 23.3268C55.1876 23.3268 54.6333 22.779 54.6333 22.1037C54.6333 21.3895 55.2464 20.8191 55.9813 20.8862C56.6702 20.9588 57.1484 21.5695 57.0814 22.2243C57.0146 22.8675 56.4741 23.3268 55.8603 23.3268Z" fill="#714437"/>
<path d="M63.654 42.266C63.6548 42.2668 63.6548 42.2676 63.6556 42.2685C62.5374 43.3839 54.9808 50.8904 54.1105 51.7588C53.6336 52.2342 52.8557 52.2375 52.3747 51.758C50.8842 50.2722 43.2744 42.7085 42.8313 42.2668V42.266C46.4549 36.113 41.8047 29.1863 41.8047 29.1863C44.8828 26.6341 49.4267 26.8493 52.2594 29.6722L53.2426 30.6532L54.2258 29.6722C57.0495 26.8575 61.8663 31.9633 64.9607 34.5269C64.8781 34.65 60.063 36.1685 63.654 42.266Z" fill="#FDB515"/>
<path d="M63.6545 42.2661L63.3813 42.5384C63.3527 42.5677 54.9814 50.8905 54.111 51.7589C53.8714 51.9978 53.5573 52.1168 53.2432 52.1168V30.6532L54.2264 29.6723C57.0345 26.873 61.5736 26.6121 64.6803 29.1871C64.6157 29.285 60.057 36.1571 63.6545 42.2661Z" fill="#C4820E"/>
<path d="M65.8719 39.965C65.5496 40.4029 65.0686 40.8603 63.6543 42.2661C63.175 42.7439 62.3979 42.7439 61.9186 42.2669L58.4781 38.8365C57.5186 37.8809 57.5194 36.3332 58.4781 35.3776L64.6801 29.1871C65.0122 29.4619 65.3271 29.7693 65.6224 30.1093C68.024 32.9094 68.1263 37.0524 65.8719 39.965Z" fill="#9F5F4E"/>
<path d="M48.0076 38.8365L44.5671 42.2668C44.0878 42.7438 43.3107 42.7438 42.8313 42.266L41.2698 40.7086C38.2203 37.6688 38.2326 32.6998 41.2698 29.6723C41.4424 29.5002 41.6207 29.3379 41.8048 29.1863L48.0076 35.3776C48.9663 36.3332 48.9671 37.8808 48.0076 38.8365Z" fill="#C8885E"/>
<path d="M44.0812 53.3334C47.6502 53.3334 50.5434 50.4494 50.5434 46.8918C50.5434 43.3342 47.6502 40.4502 44.0812 40.4502C40.5123 40.4502 37.6191 43.3342 37.6191 46.8918C37.6191 50.4494 40.5123 53.3334 44.0812 53.3334Z" fill="#9F5F4E"/>
<path d="M62.4045 53.3334C65.9734 53.3334 68.8666 50.4494 68.8666 46.8918C68.8666 43.3342 65.9734 40.4502 62.4045 40.4502C58.8356 40.4502 55.9424 43.3342 55.9424 46.8918C55.9424 50.4494 58.8356 53.3334 62.4045 53.3334Z" fill="#714437"/>
<path d="M54.7654 26.8828L54.1111 27.5351C53.8714 27.774 53.5573 27.8931 53.2432 27.8931V24.7946H53.8976C54.9879 24.7946 55.5368 26.113 54.7654 26.8828Z" fill="#714437"/>
</svg>
