<svg width="106" height="81" viewBox="0 0 106 81" fill="none" xmlns="http://www.w3.org/2000/svg">
<path d="M43.3014 37.8368L2.57599 76.3196C0.909105 74.0601 -0.00292533 71.2067 0.000197355 68.2605V12.8532C-0.0133343 10.2978 0.669284 7.79976 1.95437 5.70074L43.3014 37.8368Z" fill="#005497"/>
<path d="M106 12.8029V68.2102C106.003 71.1564 105.091 74.0098 103.424 76.2693L62.6987 37.7865L104.046 5.70074C105.324 7.78465 106.007 10.264 106 12.8029Z" fill="#005497"/>
<path d="M103.662 76.108C101.56 78.9557 98.4443 80.603 95.1588 80.6044H11.0114C7.72588 80.603 4.61063 78.9557 2.50806 76.108L43.1203 37.9378L47.3277 41.1853C50.7936 43.8832 55.3768 43.8832 58.8427 41.1853L63.0501 37.9378L103.662 76.108Z" fill="#003C76"/>
<path d="M104.498 6.42202L63.0918 38.3403L58.8666 41.5973C55.386 44.3031 50.7835 44.3031 47.303 41.5973L43.0778 38.3403L1.67188 6.37176C3.75539 2.98693 7.17753 0.965574 10.8338 0.960172H95.3362C99.0089 0.938328 102.448 2.98834 104.498 6.42202Z" fill="#0070C9"/>
<path d="M63.6314 60.2499C63.6314 61.0181 63.0817 61.6415 62.4044 61.6415H44.0815C43.4042 61.6415 42.8545 61.0181 42.8545 60.2499C42.8545 59.4817 43.4042 58.8583 44.0815 58.8583C46.2557 58.8583 48.0536 56.8534 48.0888 54.3884C48.1068 53.162 49.4197 52.5617 50.1837 53.4273L53.2429 56.898C53.9718 56.0714 55.0793 54.8152 56.3022 53.4282C57.0679 52.5608 58.3791 53.1648 58.3971 54.3894C58.4323 56.8534 60.2302 58.8583 62.4044 58.8583C63.0817 58.8583 63.6314 59.4817 63.6314 60.2499Z" fill="#C8885E"/>
<path d="M63.6314 60.2498C63.6314 61.018 63.0817 61.6415 62.4044 61.6415H53.2429V56.8979L56.3022 53.4282C57.0678 52.5608 58.3791 53.1647 58.3971 54.3893C58.4322 56.8534 60.2302 58.8582 62.4044 58.8582C63.0817 58.8582 63.6314 59.4817 63.6314 60.2498Z" fill="#9F5F4E"/>
<path d="M46.699 25.9236C49.5451 25.9236 51.8523 23.3068 51.8523 20.0788C51.8523 16.8509 49.5451 14.2341 46.699 14.2341C43.8529 14.2341 41.5457 16.8509 41.5457 20.0788C41.5457 23.3068 43.8529 25.9236 46.699 25.9236Z" fill="#9F5F4E"/>
<path d="M59.8076 25.9236C62.6537 25.9236 64.961 23.3068 64.961 20.0788C64.961 16.8509 62.6537 14.2341 59.8076 14.2341C56.9615 14.2341 54.6543 16.8509 54.6543 20.0788C54.6543 23.3068 56.9615 25.9236 59.8076 25.9236Z" fill="#714437"/>
<path d="M62.9769 27.5935C62.9769 33.6813 58.6105 38.6336 53.2428 38.6336C47.8752 38.6336 43.5088 33.6813 43.5088 27.5935C43.5088 21.8777 47.4204 18.0378 53.2428 18.0378C59.0653 18.0378 62.9769 21.8777 62.9769 27.5935Z" fill="#C8885E"/>
<path d="M62.977 27.5935C62.977 33.6813 58.6106 38.6336 53.2429 38.6336V18.0378C59.0654 18.0378 62.977 21.8777 62.977 27.5935Z" fill="#9F5F4E"/>
<path d="M54.7652 31.5466L54.1109 32.2888C53.8712 32.5606 53.5571 32.696 53.243 32.696C52.9289 32.696 52.6148 32.5606 52.3751 32.2888L51.7207 31.5466C50.951 30.6727 51.4966 29.1706 52.5886 29.1706H53.8974C54.9877 29.1706 55.5366 30.6708 54.7652 31.5466Z" fill="#9F5F4E"/>
<path d="M50.6254 27.5006C49.9518 27.5006 49.3984 26.8761 49.3984 26.109C49.3984 25.3053 50.0046 24.6467 50.7464 24.7238C51.4353 24.8064 51.9135 25.5011 51.8466 26.2462C51.7798 26.978 51.2392 27.5006 50.6254 27.5006Z" fill="#9F5F4E"/>
<path d="M55.8605 27.5008C55.1879 27.5008 54.6335 26.8776 54.6335 26.1092C54.6335 25.2966 55.2466 24.6476 55.9815 24.724C56.6704 24.8066 57.1486 25.5013 57.0817 26.2464C57.0149 26.9782 56.4743 27.5008 55.8605 27.5008Z" fill="#714437"/>
<path d="M63.6542 49.0493C63.655 49.0502 63.655 49.0511 63.6559 49.0521C62.5377 50.3212 54.9811 58.862 54.1108 59.85C53.6339 60.3909 52.856 60.3946 52.375 59.8491C50.8844 58.1586 43.2746 49.5528 42.8315 49.0502V49.0493C46.4552 42.0486 41.8049 34.1674 41.8049 34.1674C44.883 31.2636 49.4269 31.5085 52.2596 34.7204L53.2429 35.8364L54.2261 34.7204C57.0498 31.5178 61.8665 37.327 64.961 40.2438C64.8783 40.3839 60.0633 42.1117 63.6542 49.0493Z" fill="#FDB515"/>
<path d="M63.6543 49.0493L63.3811 49.3591C63.3524 49.3925 54.9811 58.862 54.1108 59.85C53.8711 60.1218 53.557 60.2573 53.2429 60.2573V35.8364L54.2261 34.7204C57.0343 31.5355 61.5733 31.2386 64.68 34.1684C64.6154 34.2797 60.0568 42.0987 63.6543 49.0493Z" fill="#C4820E"/>
<path d="M65.8719 46.4312C65.5496 46.9294 65.0686 47.4498 63.6543 49.0492C63.175 49.5929 62.3979 49.5929 61.9186 49.0502L58.4781 45.1472C57.5186 44.0599 57.5194 42.299 58.4781 41.2117L64.6801 34.1683C65.0122 34.481 65.3271 34.8307 65.6224 35.2176C68.024 38.4035 68.1263 43.1173 65.8719 46.4312Z" fill="#9F5F4E"/>
<path d="M48.0088 45.1472L44.5683 49.0502C44.089 49.5929 43.3119 49.5929 42.8326 49.0492L41.271 47.2773C38.2216 43.8187 38.2338 38.165 41.271 34.7203C41.4436 34.5246 41.6219 34.34 41.806 34.1674L48.0088 41.2117C48.9675 42.299 48.9683 44.0599 48.0088 45.1472Z" fill="#C8885E"/>
<path d="M44.0815 61.6414C47.6504 61.6414 50.5436 58.36 50.5436 54.3123C50.5436 50.2645 47.6504 46.9832 44.0815 46.9832C40.5126 46.9832 37.6194 50.2645 37.6194 54.3123C37.6194 58.36 40.5126 61.6414 44.0815 61.6414Z" fill="#9F5F4E"/>
<path d="M62.4045 61.6414C65.9734 61.6414 68.8666 58.36 68.8666 54.3123C68.8666 50.2645 65.9734 46.9832 62.4045 46.9832C58.8356 46.9832 55.9424 50.2645 55.9424 54.3123C55.9424 58.36 58.8356 61.6414 62.4045 61.6414Z" fill="#714437"/>
<path d="M54.7652 31.5466L54.1108 32.2888C53.8711 32.5606 53.557 32.696 53.2429 32.696V29.1706H53.8973C54.9877 29.1706 55.5366 30.6708 54.7652 31.5466Z" fill="#714437"/>
</svg>
