<svg width="16" height="22" viewBox="0 0 16 22" fill="none" xmlns="http://www.w3.org/2000/svg">
<path d="M13.3538 20.7694C13.3538 21.1093 13.077 21.3852 12.736 21.3852H3.50991C3.16887 21.3852 2.89209 21.1093 2.89209 20.7694C2.89209 20.4294 3.16887 20.1535 3.50991 20.1535C4.60468 20.1535 5.51 19.2663 5.52771 18.1754C5.53677 17.6326 6.19783 17.367 6.58253 17.75L8.12296 19.286C8.48994 18.9202 9.04763 18.3642 9.66339 17.7504C10.0489 17.3665 10.7091 17.6338 10.7182 18.1758C10.7359 19.2663 11.6412 20.1535 12.736 20.1535C13.077 20.1535 13.3538 20.4294 13.3538 20.7694Z" fill="#C8885E"/>
<path d="M13.3539 20.7692C13.3539 21.1091 13.0771 21.385 12.7361 21.385H8.12305V19.2858L9.66348 17.7502C10.049 17.3663 10.7092 17.6336 10.7183 18.1756C10.736 19.266 11.6413 20.1533 12.7361 20.1533C13.0771 20.1533 13.3539 20.4292 13.3539 20.7692Z" fill="#9F5F4E"/>
<path d="M4.82799 5.57801C6.26108 5.57801 7.42283 4.41995 7.42283 2.9914C7.42283 1.56285 6.26108 0.404785 4.82799 0.404785C3.3949 0.404785 2.23315 1.56285 2.23315 2.9914C2.23315 4.41995 3.3949 5.57801 4.82799 5.57801Z" fill="#9F5F4E"/>
<path d="M11.4286 5.57801C12.8617 5.57801 14.0234 4.41995 14.0234 2.9914C14.0234 1.56285 12.8617 0.404785 11.4286 0.404785C9.99549 0.404785 8.83374 1.56285 8.83374 2.9914C8.83374 4.41995 9.99549 5.57801 11.4286 5.57801Z" fill="#714437"/>
<path d="M13.0244 6.31704C13.0244 9.01123 10.8258 11.2029 8.12304 11.2029C5.42029 11.2029 3.22168 9.01123 3.22168 6.31704C3.22168 3.7875 5.19129 2.08813 8.12304 2.08813C11.0548 2.08813 13.0244 3.7875 13.0244 6.31704Z" fill="#C8885E"/>
<path d="M13.0244 6.31704C13.0244 9.01123 10.8258 11.2029 8.12305 11.2029V2.08813C11.0548 2.08813 13.0244 3.7875 13.0244 6.31704Z" fill="#9F5F4E"/>
<path d="M8.88963 8.06661L8.56013 8.39507C8.43945 8.51537 8.28128 8.57531 8.12312 8.57531C7.96496 8.57531 7.8068 8.51537 7.68612 8.39507L7.35661 8.06661C6.96903 7.67985 7.24376 7.01514 7.79362 7.01514H8.45263C9.00166 7.01514 9.27803 7.67903 8.88963 8.06661Z" fill="#9F5F4E"/>
<path d="M6.80508 6.2758C6.46589 6.2758 6.18726 5.99944 6.18726 5.65994C6.18726 5.30426 6.4925 5.01279 6.86599 5.04691C7.21288 5.08345 7.45366 5.39093 7.41997 5.72066C7.38632 6.04452 7.11415 6.2758 6.80508 6.2758Z" fill="#9F5F4E"/>
<path d="M9.44106 6.27603C9.10237 6.27603 8.82324 6.00021 8.82324 5.66017C8.82324 5.30055 9.13194 5.01331 9.50198 5.04714C9.84886 5.08369 10.0896 5.39116 10.056 5.7209C10.0223 6.04476 9.75013 6.27603 9.44106 6.27603Z" fill="#714437"/>
<path d="M13.3655 15.8125C13.3659 15.8129 13.3659 15.8133 13.3663 15.8137C12.8033 16.3754 8.99832 20.1551 8.56008 20.5924C8.31996 20.8318 7.92826 20.8334 7.68607 20.592C6.93555 19.8438 3.10379 16.0353 2.88068 15.8129V15.8125C4.7053 12.7143 2.36377 9.22649 2.36377 9.22649C3.91367 7.9414 6.20166 8.04979 7.628 9.47119L8.12308 9.96511L8.61816 9.47119C10.04 8.05389 12.4653 10.6248 14.0235 11.9156C13.9819 11.9776 11.5573 12.7422 13.3655 15.8125Z" fill="#FDB515"/>
<path d="M13.3654 15.8125L13.2279 15.9496C13.2135 15.9644 8.99829 20.1551 8.56005 20.5924C8.43937 20.7127 8.28121 20.7726 8.12305 20.7726V9.96508L8.61813 9.47116C10.0321 8.06166 12.3176 7.93028 13.8819 9.22687C13.8494 9.27613 11.554 12.7364 13.3654 15.8125Z" fill="#C4820E"/>
<path d="M14.4821 14.6538C14.3199 14.8742 14.0777 15.1046 13.3655 15.8124C13.1242 16.053 12.7329 16.053 12.4915 15.8128L10.7592 14.0855C10.276 13.6043 10.2764 12.8251 10.7592 12.3439L13.882 9.22681C14.0493 9.36517 14.2078 9.51996 14.3565 9.69116C15.5658 11.1011 15.6173 13.1872 14.4821 14.6538Z" fill="#9F5F4E"/>
<path d="M5.48702 14.0855L3.75465 15.8127C3.51329 16.0529 3.12201 16.0529 2.88065 15.8123L2.09437 15.0281C0.558881 13.4975 0.565059 10.9955 2.09437 9.47102C2.18127 9.38439 2.27106 9.30268 2.36374 9.22632L5.48702 12.3438C5.96974 12.825 5.97015 13.6043 5.48702 14.0855Z" fill="#C8885E"/>
<path d="M3.50995 21.385C5.307 21.385 6.7638 19.9328 6.7638 18.1415C6.7638 16.3501 5.307 14.8979 3.50995 14.8979C1.7129 14.8979 0.256104 16.3501 0.256104 18.1415C0.256104 19.9328 1.7129 21.385 3.50995 21.385Z" fill="#9F5F4E"/>
<path d="M12.736 21.385C14.5331 21.385 15.9899 19.9328 15.9899 18.1415C15.9899 16.3501 14.5331 14.8979 12.736 14.8979C10.939 14.8979 9.48218 16.3501 9.48218 18.1415C9.48218 19.9328 10.939 21.385 12.736 21.385Z" fill="#714437"/>
<path d="M8.88956 8.06637L8.56005 8.39483C8.43937 8.51513 8.28121 8.57507 8.12305 8.57507V7.01489H8.45255C9.00159 7.01489 9.27796 7.67879 8.88956 8.06637Z" fill="#714437"/>
</svg>
