<svg width="27" height="35" viewBox="0 0 27 35" fill="none" xmlns="http://www.w3.org/2000/svg">
<path d="M21.85 33.9721C21.85 34.5392 21.3882 34.9995 20.8193 34.9995H5.42828C4.85936 34.9995 4.39763 34.5392 4.39763 33.9721C4.39763 33.405 4.85936 32.9447 5.42828 32.9447C7.25459 32.9447 8.76483 31.4646 8.79438 29.6448C8.80949 28.7393 9.91229 28.2962 10.554 28.9352L13.1238 31.4975C13.736 30.8872 14.6663 29.9599 15.6935 28.9359C16.3367 28.2955 17.4381 28.7414 17.4532 29.6455C17.4827 31.4646 18.993 32.9447 20.8193 32.9447C21.3882 32.9447 21.85 33.405 21.85 33.9721Z" fill="#C8885E"/>
<path d="M21.8501 33.972C21.8501 34.5391 21.3884 34.9994 20.8195 34.9994H13.124V31.4974L15.6937 28.9358C16.3369 28.2954 17.4383 28.7413 17.4534 29.6453C17.4829 31.4645 18.9932 32.9446 20.8195 32.9446C21.3884 32.9446 21.8501 33.4049 21.8501 33.972Z" fill="#9F5F4E"/>
<path d="M7.62715 8.63C10.0178 8.63 11.9559 6.69811 11.9559 4.315C11.9559 1.93189 10.0178 0 7.62715 0C5.23647 0 3.29843 1.93189 3.29843 4.315C3.29843 6.69811 5.23647 8.63 7.62715 8.63Z" fill="#9F5F4E"/>
<path d="M18.638 8.63C21.0287 8.63 22.9668 6.69811 22.9668 4.315C22.9668 1.93189 21.0287 0 18.638 0C16.2473 0 14.3093 1.93189 14.3093 4.315C14.3093 6.69811 16.2473 8.63 18.638 8.63Z" fill="#714437"/>
<path d="M21.3002 9.86291C21.3002 14.3574 17.6324 18.0135 13.1237 18.0135C8.61495 18.0135 4.94722 14.3574 4.94722 9.86291C4.94722 5.64311 8.23293 2.80823 13.1237 2.80823C18.0145 2.80823 21.3002 5.64311 21.3002 9.86291Z" fill="#C8885E"/>
<path d="M21.3 9.86291C21.3 14.3574 17.6323 18.0135 13.1236 18.0135V2.80823C18.0143 2.80823 21.3 5.64311 21.3 9.86291Z" fill="#9F5F4E"/>
<path d="M14.4023 12.7813L13.8526 13.3292C13.6513 13.5299 13.3875 13.6299 13.1236 13.6299C12.8598 13.6299 12.5959 13.5299 12.3946 13.3292L11.8449 12.7813C11.1983 12.1361 11.6566 11.0272 12.5739 11.0272H13.6733C14.5892 11.0272 15.0502 12.1347 14.4023 12.7813Z" fill="#9F5F4E"/>
<path d="M10.9247 9.79444C10.3589 9.79444 9.89404 9.33342 9.89404 8.76706C9.89404 8.17371 10.4033 7.68749 11.0263 7.74441C11.605 7.80536 12.0067 8.3183 11.9505 8.86836C11.8943 9.40863 11.4403 9.79444 10.9247 9.79444Z" fill="#9F5F4E"/>
<path d="M15.3223 9.7943C14.7573 9.7943 14.2917 9.33417 14.2917 8.76692C14.2917 8.167 14.8067 7.68783 15.4239 7.74427C16.0026 7.80523 16.4043 8.31816 16.3481 8.86822C16.2919 9.40849 15.8379 9.7943 15.3223 9.7943Z" fill="#714437"/>
<path d="M21.8689 25.703C21.8696 25.7037 21.8696 25.7044 21.8703 25.7051C20.931 26.642 14.5836 32.9474 13.8525 33.6769C13.4519 34.0762 12.7985 34.0789 12.3945 33.6762C11.1425 32.4281 4.75032 26.0747 4.37812 25.7037V25.703C7.42197 20.5346 3.51581 14.7162 3.51581 14.7162C6.10136 12.5724 9.9182 12.7532 12.2976 15.1244L13.1235 15.9484L13.9494 15.1244C16.3213 12.7601 20.3673 17.0488 22.9666 19.2022C22.8972 19.3056 18.8525 20.5812 21.8689 25.703Z" fill="#FDB515"/>
<path d="M21.8694 25.703L21.6399 25.9317C21.6158 25.9564 14.5841 32.9474 13.853 33.6768C13.6517 33.8775 13.3878 33.9775 13.124 33.9775V15.9483L13.9499 15.1244C16.3087 12.773 20.1214 12.5539 22.731 14.7169C22.6767 14.799 18.8475 20.5715 21.8694 25.703Z" fill="#C4820E"/>
<path d="M23.7319 23.7702C23.4612 24.138 23.0572 24.5222 21.8692 25.703C21.4666 26.1044 20.8138 26.1044 20.4112 25.7037L17.5213 22.8223C16.7153 22.0195 16.716 20.7196 17.5213 19.9168L22.7308 14.7169C23.0098 14.9477 23.2743 15.206 23.5224 15.4916C25.5397 17.8436 25.6256 21.3237 23.7319 23.7702Z" fill="#9F5F4E"/>
<path d="M8.72615 22.8222L5.83621 25.7037C5.43357 26.1044 4.78083 26.1044 4.37819 25.703L3.06651 24.3948C0.505007 21.8414 0.515313 17.6675 3.06651 15.1244C3.21149 14.9799 3.36128 14.8436 3.51588 14.7162L8.72615 19.9168C9.53143 20.7195 9.53212 22.0195 8.72615 22.8222Z" fill="#C8885E"/>
<path d="M5.42808 34.9995C8.42593 34.9995 10.8562 32.5769 10.8562 29.5886C10.8562 26.6003 8.42593 24.1777 5.42808 24.1777C2.43024 24.1777 0 26.6003 0 29.5886C0 32.5769 2.43024 34.9995 5.42808 34.9995Z" fill="#9F5F4E"/>
<path d="M20.8194 34.9995C23.8172 34.9995 26.2474 32.5769 26.2474 29.5886C26.2474 26.6003 23.8172 24.1777 20.8194 24.1777C17.8215 24.1777 15.3913 26.6003 15.3913 29.5886C15.3913 32.5769 17.8215 34.9995 20.8194 34.9995Z" fill="#714437"/>
<path d="M14.4027 12.7813L13.853 13.3292C13.6517 13.5299 13.3878 13.6299 13.124 13.6299V11.0272H13.6737C14.5896 11.0272 15.0506 12.1347 14.4027 12.7813Z" fill="#714437"/>
</svg>
